<mxfile host="app.diagrams.net" modified="2023-10-30T10:19:35.531Z" agent="Mozilla/5.0 (Windows NT 10.0; Win64; x64) AppleWebKit/537.36 (KHTML, like Gecko) Chrome/109.0.0.0 Safari/537.36" version="22.0.8" etag="E3g19MluMq0ZivUc4bn_" type="github">
  <diagram name="Страница — 1" id="Qci7-uP9BcrX-okuD9zf">
    <mxGraphModel>
      <root>
        <mxCell id="0" />
        <mxCell id="1" parent="0" />
      </root>
    </mxGraphModel>
  </diagram>
</mxfile>
